<svg xmlns="http://www.w3.org/2000/svg" xml:space="preserve" id="Html" x="0" y="0" enable-background="new 0 0 48 48" version="1.1" viewBox="0 0 48 48">
  <path d="M24,0.5C11,0.5,0.5,11,0.5,24S11,47.5,24,47.5S47.5,37,47.5,24S37,0.5,24,0.5z M20.2,29.8c0.8,0.8,0.8,2,0,2.8  c-0.4,0.4-0.9,0.6-1.4,0.6c-0.5,0-1-0.2-1.4-0.6l-7.2-7.2c-0.8-0.8-0.8-2,0-2.8l7.2-7.2c0.8-0.8,2-0.8,2.8,0c0.8,0.8,0.8,2,0,2.8  L14.3,24L20.2,29.8z M37.8,25.4l-7.2,7.2c-0.4,0.4-0.9,0.6-1.4,0.6s-1-0.2-1.4-0.6c-0.8-0.8-0.8-2,0-2.8l5.8-5.8l-5.8-5.8  c-0.8-0.8-0.8-2,0-2.8c0.8-0.8,2-0.8,2.8,0l7.2,7.2C38.6,23.4,38.6,24.6,37.8,25.4z" fill="#000000" class="color000000 svgShape"></path>
</svg>
